<?xml version="1.0" encoding="UTF-8" standalone="no"?>
<!DOCTYPE svg PUBLIC "-//W3C//DTD SVG 1.1//EN" "http://www.w3.org/Graphics/SVG/1.1/DTD/svg11.dtd">
<svg width="100%" height="100%" viewBox="0 0 500 500" version="1.1" xmlns="http://www.w3.org/2000/svg" xmlns:xlink="http://www.w3.org/1999/xlink" xml:space="preserve" xmlns:serif="http://www.serif.com/" style="fill-rule:evenodd;clip-rule:evenodd;stroke-linecap:round;stroke-linejoin:round;stroke-miterlimit:1.5;">
    <rect x="0" y="0" width="500" height="500" style="fill:white;"/>
    <path d="M425.3,175.913L425.3,322.303C425.3,412.818 351.942,486.305 261.584,486.305L238.618,486.305C148.26,486.305 74.902,412.818 74.902,322.303L74.902,175.913C74.902,85.397 148.26,11.91 238.618,11.91L261.584,11.91C351.942,11.91 425.3,85.397 425.3,175.913Z" style="fill:rgb(253,197,24);stroke:black;stroke-width:2.08px;"/>
    <path d="M416.626,176.482L416.626,321.721C416.626,407.761 346.9,477.61 261.015,477.61L239.186,477.61C153.301,477.61 83.575,407.761 83.575,321.721L83.575,176.482C83.575,90.442 153.301,20.593 239.186,20.593L261.015,20.593C346.9,20.593 416.626,90.442 416.626,176.482Z" style="fill:rgb(253,197,24);stroke:black;stroke-width:4.16px;"/>
    <g id="Text">
        <path d="M139.752,146.739L132.255,161.576L106.037,148.273L108.625,143.152L129.927,153.96L134.941,144.037L139.752,146.739Z"/>
        <path d="M146.455,127.539L148.713,132.981L144.644,137.888L130.953,106.344L164.776,113.612L160.682,118.548L154.857,117.407L146.455,127.539ZM139.701,113.478L144.12,123.011L149.913,116.025L139.701,113.478Z" style="fill-rule:nonzero;"/>
        <path d="M199.842,91.771L183.294,100.518L169.6,74.502L174.673,71.821L185.799,92.959L197.14,86.965L199.842,91.771Z"/>
        <path d="M224.345,84.249C215.919,86.426 206.835,81.516 205.161,73.55C203.114,65.633 209.141,57.163 217.588,55.405C221.931,54.382 225.979,54.892 229.741,56.973C233.502,59.053 235.867,62.079 236.808,66.095C238.855,74.012 232.791,82.49 224.345,84.249ZM215.227,77.882C217.645,79.162 220.26,79.471 223.07,78.809C225.881,78.147 228.085,76.703 229.682,74.477C231.279,72.252 231.768,69.902 231.187,67.419C230.605,64.937 229.123,63.051 226.705,61.771C224.287,60.492 221.673,60.183 218.862,60.845C216.052,61.507 213.848,62.951 212.251,65.176C210.654,67.402 210.164,69.751 210.746,72.234C211.328,74.717 212.809,76.603 215.227,77.882Z" style="fill-rule:nonzero;"/>
        <path d="M248.392,77.111C245.307,74.038 243.86,70.441 244.051,66.358C244.241,62.275 246.014,58.867 249.374,56.059C252.653,53.359 256.503,52.114 260.96,52.323C263.77,52.455 266.4,53.216 268.777,54.567C271.192,55.919 273.096,57.735 274.492,60.016L269.656,63.092C267.885,60.006 264.446,58.08 260.7,57.904C257.816,57.769 255.302,58.552 253.158,60.253C251.014,61.954 249.901,64.08 249.782,66.627C249.663,69.174 250.573,71.394 252.55,73.289C254.526,75.184 256.956,76.199 259.841,76.334C263.624,76.512 267.229,74.879 269.318,71.936L273.851,75.378C272.285,77.557 270.217,79.224 267.648,80.38C265.079,81.536 262.39,82.048 259.581,81.916C255.123,81.706 251.406,80.105 248.392,77.111Z" style="fill-rule:nonzero;"/>
        <path d="M285.537,81.219L281.337,85.34L275.27,83.381L299.394,58.937L305.281,93.074L299.179,91.103L298.062,85.265L285.537,81.219ZM296.047,69.718L288.862,77.367L297.498,80.157L296.047,69.718Z" style="fill-rule:nonzero;"/>
        <path d="M312.902,98.553L308.106,95.403L324.717,70.018L333.747,99.638L344.075,83.855L348.871,87.005L332.198,112.485L323.127,82.927L312.902,98.553Z" style="fill-rule:nonzero;"/>
        <path d="M346.516,127.318L336.863,116.232L359.001,96.886L368.654,107.972C371.338,111.054 372.556,114.622 372.278,118.7C372,122.777 370.362,126.151 367.313,128.816C364.263,131.481 360.705,132.648 356.634,132.37C352.564,132.093 349.201,130.401 346.516,127.318ZM358.618,104.84L344.781,116.931L350.667,123.691C352.317,125.585 354.399,126.605 356.911,126.75C359.424,126.894 361.653,126.142 363.545,124.489C365.437,122.835 366.483,120.725 366.681,118.212C366.879,115.698 366.153,113.494 364.503,111.599L358.618,104.84Z" style="fill-rule:nonzero;"/>
        <path d="M365.435,145.741L359.552,145.697L356.637,140.028L390.975,139.729L371.058,168.075L368.126,162.372L371.454,157.446L365.435,145.741ZM380.997,145.007L370.509,145.358L374.659,153.428L380.997,145.007Z" style="fill-rule:nonzero;"/>
        <path d="M145.956,410.628L135.047,400.775L154.714,378.922L165.623,388.775C168.657,391.514 170.292,394.911 170.503,398.993C170.714,403.075 169.491,406.619 166.782,409.63C164.073,412.64 160.679,414.224 156.605,414.435C152.53,414.646 148.989,413.368 145.956,410.628ZM155.285,386.865L142.992,400.524L149.643,406.531C151.508,408.215 153.696,408.978 156.208,408.822C158.72,408.665 160.843,407.652 162.524,405.784C164.205,403.916 164.992,401.697 164.888,399.177C164.784,396.658 163.8,394.556 161.936,392.872L155.285,386.865Z" style="fill-rule:nonzero;"/>
        <path d="M183.187,436.946L167.756,428.726L181.535,402.754L195.993,410.457L193.608,415.389L184.033,410.288L180.94,416.119L190.733,421.336L188.447,426.066L178.479,420.757L175.386,426.587L185.572,432.013L183.187,436.946Z"/>
        <path d="M218.633,449.055L203.446,445.232L210.587,416.712L216.151,418.113L210.349,441.285L219.789,443.661L218.633,449.055Z"/>
        <path d="M257.822,423.28L282.533,419.957L283.258,425.422L274.605,426.585L277.768,450.262L272.082,451.027L268.918,427.35L258.419,428.762L257.822,423.28Z"/>
        <path d="M316.208,438.581L299.557,445.276L288.635,417.98L305.451,411.219L307.455,416.315L295.992,420.923L298.444,427.051L309.869,422.457L311.79,427.343L300.395,431.925L302.847,438.052L314.205,433.486L316.208,438.581Z"/>
        <path d="M330.521,426.413C326.217,425.781 322.918,423.751 320.644,420.354C318.371,416.958 317.77,413.16 318.799,408.9C319.828,404.775 322.179,401.478 325.884,398.989C328.218,397.421 330.783,396.466 333.494,396.135C336.237,395.783 338.846,396.108 341.322,397.11L339.267,402.466C336.01,401.04 332.104,401.541 328.991,403.633C326.595,405.243 325.041,407.371 324.33,410.017C323.619,412.663 323.989,415.035 325.407,417.155C326.825,419.274 328.876,420.516 331.589,420.862C334.302,421.207 336.857,420.575 339.254,418.965C342.398,416.852 344.322,413.391 344.251,409.779L349.936,409.845C349.974,412.53 349.304,415.103 347.928,417.564C346.552,420.025 344.696,422.039 342.362,423.608C338.658,426.097 334.721,427.025 330.521,426.413Z" style="fill-rule:nonzero;"/>
        <path d="M356.096,396.272L364.937,404.273L361.095,408.534L339.296,388.808L343.139,384.547L351.98,392.548L364.06,379.152L355.218,371.151L359.06,366.89L380.859,386.616L377.017,390.877L368.175,382.876L356.096,396.272Z" style="fill-rule:nonzero;"/>
    </g>
    <path d="M247.499,298.87L247.499,304.969C245.36,304.083 243.017,303.596 240.561,303.596C238.104,303.596 235.761,304.083 233.622,304.969L233.622,189.516C235.761,190.402 238.104,190.889 240.561,190.889C243.017,190.889 245.36,190.402 247.499,189.516L247.499,275.48C256.544,270.919 271.383,264.741 281.273,259.711C283.993,258.329 287.089,256.34 288.099,255.679C290.543,249.224 290.171,243.185 290.47,231.49C292.623,232.394 294.985,232.889 297.461,232.889C300.12,232.889 302.648,232.316 304.926,231.291C304.412,246.217 304.381,254.671 300.944,262.456C300.148,264.264 297.509,267.166 292.91,269.868C282.269,276.106 257.818,285.698 250.276,290.425C247.957,291.876 247.666,298.218 247.666,298.218C247.621,298.453 247.565,298.67 247.499,298.87ZM240.561,150.922C250.613,150.922 258.774,159.098 258.774,169.168C258.774,179.238 250.613,187.414 240.561,187.414C230.508,187.414 222.347,179.238 222.347,169.168C222.347,159.098 230.508,150.922 240.561,150.922ZM297.461,192.922C307.513,192.922 315.675,201.098 315.675,211.168C315.675,221.238 307.513,229.414 297.461,229.414C287.408,229.414 279.247,221.238 279.247,211.168C279.247,201.098 287.408,192.922 297.461,192.922ZM240.561,307.072C250.613,307.072 258.774,315.248 258.774,325.318C258.774,335.388 250.613,343.564 240.561,343.564C230.508,343.564 222.347,335.388 222.347,325.318C222.347,315.248 230.508,307.072 240.561,307.072Z"/>
</svg>
